<?xml version="1.0" standalone="no"?>
<!DOCTYPE svg PUBLIC "-//W3C//DTD SVG 20010904//EN"
 "http://www.w3.org/TR/2001/REC-SVG-20010904/DTD/svg10.dtd">
<svg version="1.0" xmlns="http://www.w3.org/2000/svg"
 width="337.000000pt" height="337.000000pt" viewBox="0 0 337.000000 337.000000"
 preserveAspectRatio="xMidYMid meet">
<metadata>
Created by potrace 1.14, written by Peter Selinger 2001-2017
</metadata>
<g transform="translate(0.000000,337.000000) scale(0.100000,-0.100000)"
fill="#000000" stroke="none">
<path d="M2848 3344 c-40 -21 -72 -78 -58 -104 12 -23 49 -49 76 -54 11 -2 38
-9 62 -15 23 -7 47 -9 52 -6 6 3 20 -1 31 -9 15 -10 28 -12 44 -6 14 5 27 4
34 -3 6 -6 27 -10 46 -9 19 2 35 -1 35 -6 0 -5 -35 -8 -77 -5 -97 5 -82 5
-182 -1 -92 -6 -118 -20 -142 -77 -11 -28 -12 -29 -25 -10 -8 10 -17 45 -20
77 -8 66 -50 151 -86 173 -57 36 -121 31 -290 -21 -55 -17 -72 -27 -88 -54
-20 -31 -20 -35 -5 -64 9 -17 28 -35 43 -41 28 -11 115 -3 145 13 34 18 77 18
86 0 13 -25 29 -119 22 -129 -3 -5 -35 -14 -70 -21 -79 -14 -136 -51 -152 -99
-6 -20 -11 -89 -11 -153 0 -95 3 -124 18 -148 14 -25 15 -34 5 -45 -16 -21
-31 -75 -24 -92 3 -8 20 -24 39 -35 57 -36 126 -11 144 51 8 26 6 39 -10 67
-15 25 -18 38 -10 52 9 17 12 86 7 175 -2 36 1 40 28 48 17 5 41 14 55 20 14
6 33 12 43 14 27 5 57 22 57 33 0 5 11 19 25 32 13 13 31 41 39 63 16 45 19
39 20 -60 1 -38 5 -78 10 -87 6 -14 0 -19 -33 -28 -45 -12 -61 -33 -61 -78 0
-52 66 -92 155 -97 96 -5 93 -4 97 -33 2 -16 -1 -41 -8 -57 -11 -26 -10 -74 2
-132 2 -14 20 -31 42 -42 38 -19 38 -19 70 0 31 20 52 65 58 124 2 17 6 47 10
67 l6 37 82 -6 c109 -8 134 -6 162 12 20 13 24 24 24 70 0 57 -6 66 -49 71
-14 2 -44 6 -66 10 -22 3 -59 8 -82 9 -75 5 -80 21 -6 22 119 1 143 16 143 85
0 29 -7 45 -26 63 -15 14 -30 25 -33 26 -3 0 -70 1 -148 1 -111 1 -143 4 -143
15 0 13 32 13 193 -2 62 -5 88 4 138 47 35 30 69 109 75 175 4 50 3 55 -27 83
-42 37 -66 47 -169 64 -47 8 -96 17 -110 19 -14 3 -50 8 -80 11 -30 4 -66 8
-80 10 -14 2 -38 -2 -52 -10z m219 -590 c-3 -3 -12 -4 -19 -1 -8 3 -5 6 6 6
11 1 17 -2 13 -5z"/>
<path d="M1770 3339 c-8 -5 -28 -9 -45 -8 -100 1 -145 -13 -177 -55 -15 -20
-15 -38 -8 -156 11 -159 25 -235 50 -260 15 -15 32 -18 107 -15 54 1 76 0 58
-5 -16 -4 -46 -8 -66 -9 -64 -2 -98 -20 -120 -64 -17 -32 -19 -45 -10 -63 6
-13 16 -24 22 -24 8 0 9 -11 5 -31 -5 -24 -1 -35 18 -51 20 -19 21 -24 10 -47
-15 -31 -19 -76 -10 -113 3 -16 8 -40 11 -54 9 -41 52 -52 190 -48 66 2 153 4
193 4 91 2 115 19 109 80 -2 22 -9 46 -16 53 -8 11 -8 23 4 50 8 20 12 43 9
51 -3 9 -2 29 4 44 6 18 6 35 0 45 -6 12 -5 17 5 17 8 0 26 9 41 21 36 28 36
80 0 116 -25 25 -25 25 -5 39 28 20 43 75 46 175 2 48 8 97 14 108 8 14 8 27
2 39 -5 9 -11 38 -14 64 -6 53 -20 84 -45 96 -9 5 -78 8 -152 6 -170 -4 -202
-4 -210 1 -3 2 -12 0 -20 -6z m214 -179 c31 0 32 -1 29 -37 -2 -21 -3 -50 -3
-64 l0 -26 -126 -2 c-70 -1 -129 -3 -133 -6 -16 -9 -30 13 -39 63 -5 29 -6 55
-1 58 4 2 23 5 41 5 60 -1 160 8 166 14 3 3 12 3 20 0 7 -3 28 -5 46 -5z m106
-308 c0 -5 -19 -9 -42 -9 -35 -1 -39 0 -18 7 34 11 60 12 60 2z"/>
<path d="M930 2535 c-19 -7 -43 -14 -52 -14 -27 -1 -118 -60 -162 -104 -69
-69 -51 -145 39 -164 78 -16 206 11 256 54 8 7 22 13 30 13 28 1 94 77 100
115 5 33 -11 76 -34 96 -27 22 -124 25 -177 4z m132 -85 c-3 -28 -70 -92 -89
-85 -6 2 -13 0 -15 -5 -2 -5 -15 -11 -30 -14 -15 -2 -33 -8 -40 -12 -20 -13
-126 -16 -133 -4 -8 12 16 65 30 65 14 1 59 26 66 37 3 5 15 11 25 13 10 2 19
4 19 5 0 2 15 5 54 14 14 3 28 9 33 14 5 5 25 6 46 2 32 -5 37 -9 34 -30z"/>
<path d="M1246 2490 c-19 -3 -30 -12 -33 -25 -3 -18 -3 -249 1 -415 0 -36 5
-68 9 -71 9 -7 -2 -39 -14 -39 -4 0 -31 23 -59 50 -28 28 -47 50 -43 50 11 0
-62 36 -137 69 -63 27 -229 98 -300 128 -95 41 -123 49 -148 45 -21 -3 -22 -7
-16 -50 3 -26 9 -51 12 -56 3 -5 6 -19 8 -30 1 -12 9 -43 18 -70 8 -27 13 -53
10 -58 -3 -5 -1 -15 6 -23 10 -12 19 -51 22 -92 1 -7 5 -13 10 -13 4 0 8 -9 8
-20 0 -11 5 -20 10 -20 6 0 10 -9 10 -21 0 -11 10 -29 22 -38 22 -18 22 -18
-25 -25 -26 -4 -49 -11 -52 -15 -2 -5 -29 -20 -58 -35 -29 -14 -73 -45 -98
-69 -24 -24 -52 -46 -62 -50 -9 -3 -17 -14 -17 -22 0 -9 -5 -13 -10 -10 -6 3
-13 -2 -17 -12 -3 -10 -13 -22 -21 -26 -7 -5 -29 -40 -47 -78 -18 -39 -38 -75
-43 -82 -6 -7 -11 -16 -12 -22 -3 -23 -12 -62 -21 -85 -5 -14 -12 -47 -15 -75
-3 -27 -8 -54 -11 -59 -6 -9 -14 -79 -16 -133 -1 -12 -5 -19 -10 -16 -5 3 -7
-11 -3 -33 13 -80 4 -197 -15 -221 -7 -7 -9 -16 -6 -19 3 -4 -3 -15 -14 -27
-10 -11 -19 -31 -19 -43 0 -13 -5 -26 -10 -29 -6 -3 -10 -18 -10 -33 0 -15 -4
-33 -9 -41 -9 -15 7 -81 21 -81 4 0 8 -6 8 -14 0 -8 7 -17 16 -20 8 -3 12 -11
8 -17 -4 -7 -3 -9 4 -5 6 3 16 0 24 -7 7 -7 33 -23 58 -36 25 -12 52 -26 60
-30 53 -28 62 -32 67 -27 3 3 13 1 23 -4 24 -13 60 15 60 46 0 31 10 30 40 -1
13 -14 29 -25 35 -25 6 0 28 -9 50 -20 22 -11 47 -20 57 -20 10 0 18 -6 19
-12 6 -104 70 -184 174 -218 62 -21 129 -22 1099 -29 l908 -6 9 23 c5 13 10
58 11 101 2 44 6 77 10 75 4 -3 5 1 3 8 -3 8 1 22 8 32 12 16 28 19 103 20 66
1 97 5 116 18 38 25 59 48 53 59 -4 5 0 9 9 9 8 0 22 20 32 48 10 26 22 53 27
59 5 7 7 21 4 32 -2 10 1 27 7 37 11 20 15 45 20 129 3 52 -12 105 -39 131
-16 17 -20 40 -7 46 13 4 22 51 14 64 -4 6 -24 21 -45 32 -38 20 -38 20 -17
35 51 35 14 116 -54 117 -30 0 -146 -47 -158 -64 -4 -6 -27 10 -54 37 -36 35
-45 50 -37 58 6 6 9 18 6 27 -5 11 -3 13 7 7 9 -6 11 -4 5 5 -4 7 -10 29 -12
49 -2 19 -8 40 -13 46 -5 6 -7 20 -6 30 2 11 -3 30 -11 43 -7 12 -11 27 -8 32
3 5 -6 21 -20 36 -14 15 -25 33 -25 40 0 7 -10 23 -22 35 -13 12 -16 18 -8 13
8 -4 0 11 -19 35 -19 23 -40 45 -48 48 -7 3 -13 12 -13 20 0 8 -13 19 -30 24
-16 6 -28 14 -27 18 2 7 -60 71 -70 71 -3 0 -23 18 -44 41 -21 22 -43 38 -49
34 -5 -3 -10 -2 -10 4 0 11 -71 57 -82 53 -5 -1 -8 3 -8 10 0 6 -3 8 -7 5 -3
-4 -12 -2 -20 4 -7 6 -13 8 -13 3 0 -5 -7 2 -16 14 -8 12 -21 22 -29 22 -8 0
-29 6 -47 14 -45 20 -71 30 -83 31 -19 3 -70 18 -80 23 -5 3 -23 7 -40 9 -16
2 -40 5 -53 7 -12 1 -25 6 -29 9 -3 4 -26 7 -49 7 -24 0 -45 4 -48 9 -3 5 -49
7 -101 6 l-96 -3 19 32 c24 40 35 83 23 90 -5 3 -12 22 -15 41 -4 19 -11 35
-16 35 -5 0 -11 9 -15 19 -5 16 -29 47 -83 106 -5 6 -50 48 -98 95 -79 76 -92
85 -118 80z"/>
<path d="M2462 2168 c-42 -11 -75 -54 -67 -88 12 -45 25 -53 82 -47 29 3 55 2
57 -2 9 -14 -10 -29 -50 -40 -52 -14 -65 -30 -72 -86 -2 -25 -11 -50 -18 -56
-38 -31 5 -109 61 -109 43 0 67 24 64 64 -4 40 7 57 54 81 55 28 84 66 92 123
8 60 -11 112 -50 138 -33 22 -110 33 -153 22z"/>
<path d="M2742 1984 c-57 -40 -46 -92 24 -119 24 -9 44 -21 44 -26 0 -6 -25
-9 -55 -8 -63 3 -100 -17 -124 -67 -8 -16 -17 -31 -21 -34 -21 -15 -37 -65
-28 -86 27 -59 100 -55 131 9 18 35 21 37 68 37 136 0 217 137 141 239 -40 54
-138 85 -180 55z"/>
<path d="M2973 1769 c-52 -19 -56 -78 -9 -116 42 -33 38 -47 -9 -27 -50 21
-67 18 -102 -18 -97 -100 -112 -139 -73 -178 35 -35 85 -24 105 23 12 29 15
30 82 31 77 1 127 25 157 77 19 32 14 110 -10 146 -29 45 -102 77 -141 62z"/>
</g>
</svg>
